# xmcd
#
# Track frame offsets:
#	150
#	17555
#	32330
#	55425
#	69612
#	85402
#	107960
#	122280
#	137097
#	148935
#	166357
#	182407
#	199705
#	210760
#	229235
#	245042
#
# Disc length: 3442
#
# Revision: 1
# Processed by: cddbd v1.5.1PL0 Copyright (c) Steve Scherf et al.
# Submitted via: Axialis_AX_CDPlayer 2.6
# Normalized: r0:DSETVAR1,TDELIM( - )
#
DISCID=dd0d7010
DTITLE=Various Artist - Le plein de tubes
DYEAR=1900
DGENRE=
TTITLE0=Daniel balavoine - Le chanteur
TTITLE1=Michel Delpech - Pour un flirt
TTITLE2=Irene Cara - Fame
TTITLE3=Donna Summer - I feel love
TTITLE4=Status Quo - In the army now
TTITLE5=Ray Charles and Dee Dee Bridgewater - Precious Thing (Till the next ... \nSomewhere)
TTITLE6=Hervé Cristiani - Il est libre max
TTITLE7=Amii Stewart - Knock on wood
TTITLE8=Soft Cell - Tainted love
TTITLE9=Robert Charlebois and Louise  Forestier - Lindberg
TTITLE10=Charlélie Couture - Comme un avion sans file
TTITLE11=Isabelle Rojani - Pull marine
TTITLE12=Lio - Le banana split
TTITLE13=Chagrin d'Amour - Chacun fait (C'qui lui plait)
TTITLE14=Claude François - Y'a le printemps qui chante
TTITLE15=Dalida - Il venait d'avoir fix-huit ans
EXTD=
EXTT0=
EXTT1=
EXTT2=
EXTT3=
EXTT4=
EXTT5=
EXTT6=
EXTT7=
EXTT8=
EXTT9=
EXTT10=
EXTT11=
EXTT12=
EXTT13=
EXTT14=
EXTT15=
PLAYORDER=
